<svg width="376" height="726" viewBox="0 0 376 726" fill="none" xmlns="http://www.w3.org/2000/svg">
<g style="mix-blend-mode:multiply" opacity="0.28">
<path d="M368.703 703.422C373.464 706.071 373.324 712.962 368.462 715.419L353.419 723.463C346.31 727.056 337.81 726.821 330.91 722.842L73.6298 574.328C68.3272 571.268 67.8033 563.823 72.6275 560.055L78.6843 555.473C84.7793 550.709 93.188 550.057 99.9488 553.82L368.703 703.422Z" fill="#231F20"/>
</g>
<path d="M156.778 91.7675C156.778 96.2695 160.434 99.9255 164.939 99.9255H166.145C170.647 99.9255 174.304 96.2695 174.304 91.7675C174.304 87.2583 170.648 83.6094 166.145 83.6094H164.939C160.436 83.6094 156.778 87.2583 156.778 91.7675Z" fill="#808080"/>
<path d="M134.635 486.537L135.669 63.4297L100.799 83.7002L99.7632 506.799L327.17 638.103L361.924 616.615L134.635 486.537Z" fill="#0F1F23"/>
<path d="M201.201 70.1147C201.209 68.6172 201.75 67.5528 202.612 67.0469L167.739 87.3174C166.871 87.8162 166.329 88.8793 166.329 90.3852C177.951 83.6291 189.579 76.8791 201.201 70.1147Z" fill="#616464"/>
<path d="M202.611 67.0481L167.739 87.3186C166.871 87.8174 166.29 88.8817 166.329 90.3864C166.409 93.2966 167.923 95.9683 171.057 98.5683L270.857 161.781L300.494 133.432C300.494 133.432 201.75 67.5552 202.611 67.0481Z" fill="#62797C"/>
<path d="M109.047 78.543L108.013 501.64L335.421 632.944L336.453 209.838L109.047 78.543Z" fill="#29D8FF"/>
<path d="M327.171 638.103L362.043 617.84L363.076 194.727L328.207 214.997L327.171 638.103Z" fill="#B4B4B4"/>
<path d="M346.601 129.848L128.664 4.02041C120.531 -0.674929 113.177 -1.11881 107.869 1.96568C96.2401 8.72172 95.1113 9.67153 83.4893 16.4276C88.7979 13.3431 85.6574 19.5872 93.7928 24.2909L311.728 150.119C324.734 157.608 337.741 175.826 340.391 194.236C340.697 196.387 340.911 198.521 340.906 200.598L339.505 696.404C339.472 705.601 346.666 706.083 341.422 709.128C353.044 702.379 354.218 701.607 365.846 694.859C371.088 691.812 374.352 685.339 374.375 676.142L375.777 180.329C375.85 161.58 362.302 138.935 346.6 129.85L346.601 129.848Z" fill="#62797C"/>
<path d="M323.663 143.353C339.826 152.679 352.896 175.251 352.841 193.832L351.44 689.637C351.384 708.161 338.233 715.652 322.068 706.324L104.133 580.497C87.971 571.155 74.9553 548.557 75.0114 530.05L76.4135 34.2276C76.4683 15.6562 89.5652 8.19142 105.729 17.5248L323.664 143.353H323.663ZM99.7637 506.799L327.171 638.102L328.206 214.997L100.799 83.6999L99.7649 506.797L99.7637 506.799ZM258.124 137.869L171.082 87.6221C168.507 86.1246 166.337 87.3643 166.33 90.3844C166.323 93.414 168.473 97.0772 171.058 98.5663L258.093 148.82C260.725 150.342 262.837 149.134 262.842 146.107C262.85 143.086 260.757 139.391 258.124 137.869Z" fill="#203B42"/>
<path d="M229.812 599.83C229.691 599.541 227.077 593.743 224.569 589.94C218.01 580.001 205.194 569.453 195.457 575.123L190.993 577.452C197.291 573.796 205.338 577.421 211.015 582.026C211.465 582.398 214.012 584.687 215.09 585.827C216.917 587.76 218.561 589.967 220.092 592.239C221.862 594.815 223.667 598.052 224.932 601.017C225.093 601.387 225.197 601.774 225.343 602.16C227.091 606.51 228.476 612.292 228.459 616.836C228.44 623.727 226.019 628.577 222.089 630.847L226.55 628.533C230.472 626.244 232.905 621.396 232.922 614.503C232.939 609.928 231.527 604.211 229.814 599.829L229.812 599.83Z" fill="#0F1F23"/>
<path d="M206.6 578.982C194.52 571.994 184.647 577.565 184.606 591.514C184.565 605.398 194.375 622.325 206.461 629.299C218.602 636.308 228.424 630.718 228.458 616.836C228.498 602.886 218.745 585.989 206.6 578.982Z" fill="#62797C"/>
<path d="M165.609 30.7716C165.609 31.5925 165.06 32.3991 163.998 33.0101C161.895 34.2343 158.48 34.2665 156.33 33.0184L135.881 21.1315C134.842 20.5277 134.319 19.7223 134.319 18.9336L134.336 25.6503C134.344 26.4557 134.859 27.2456 135.897 27.8565L156.355 39.7434C158.496 40.9844 161.909 40.951 164.012 39.7434C165.084 39.1242 165.624 38.3104 165.624 37.505L165.608 30.7728L165.609 30.7716Z" fill="#1B333A"/>
<path d="M135.905 16.6955C133.804 17.9043 133.789 19.9172 135.882 21.1331L156.331 33.0201C158.481 34.2682 161.896 34.2359 163.999 33.0117C166.108 31.803 166.172 29.8222 164.023 28.5824L143.576 16.6955C141.481 15.4713 138.016 15.4713 135.905 16.6955Z" fill="#A3BDC1"/>
<path d="M135.606 140.431C126.543 135.199 117.657 130.953 108.999 127.629L108.922 158.884C115.007 156.285 121.471 154.512 128.259 153.611L128.023 237.717L108.758 226.596L108.716 243.38L127.975 254.499L127.603 385.418L108.395 374.328L108.355 391.111L127.556 402.196L127.324 484.059C120.603 475.381 114.214 466.216 108.197 456.672L108.114 490.114C116.718 496.739 125.552 502.717 134.564 507.918C222.736 558.824 294.71 517.809 294.996 416.495C295.285 315.178 223.777 191.336 135.606 140.431ZM142.855 164.918C167.684 198.279 187.764 238.236 200.213 279.395L142.624 246.147L142.853 164.917L142.855 164.918ZM142.575 262.929L205.606 299.32C211.204 322.68 214.231 346.13 214.17 368.725C214.101 392.146 210.71 412.655 204.587 429.863L142.207 393.846L142.577 262.928L142.575 262.929ZM142.159 410.629L198.904 443.39C186.213 469.033 166.32 485.075 141.935 489.602L142.159 410.629ZM261.221 479.37C240.678 508.86 205.332 518.868 163.57 504.504C185.611 496.245 203.349 478.436 214.722 452.522L261.221 479.37C262.535 477.49 263.777 475.541 264.968 473.52C263.787 475.545 262.535 477.49 261.221 479.37ZM280.383 408.057C280.319 431.285 276.1 451.001 268.549 466.795L219.875 438.69C225.537 421.031 228.717 400.462 228.783 377.162C228.844 354.679 226.004 331.388 220.823 308.105L268.922 335.874C276.357 360.316 280.45 384.842 280.383 408.058V408.057ZM265.387 325.035C264.215 321.651 262.986 318.275 261.699 314.904C262.986 318.275 264.221 321.645 265.387 325.035ZM215.935 288.473C205.284 250.433 188.505 213.016 167.497 179.779C207.888 213.571 241.873 263.101 261.688 314.89L215.934 288.473H215.935Z" fill="#1CAAD1"/>
<path d="M141.951 212.677C146.264 215.168 149.755 221.21 149.738 226.174C149.725 231.13 146.214 233.131 141.9 230.641L76.6998 192.998C72.3875 190.508 68.8985 184.466 68.9117 179.509C68.9248 174.546 72.4376 172.545 76.75 175.036L141.951 212.678V212.677Z" fill="#425F68"/>
<path d="M217.884 263.438C221.26 265.387 223.991 270.115 223.98 273.997C223.966 277.877 221.219 279.443 217.843 277.492L215.359 276.059C211.981 274.109 209.25 269.38 209.263 265.5C209.274 261.618 212.022 260.053 215.399 262.003L217.884 263.438Z" fill="white"/>
<path d="M216.748 224.237C220.813 226.585 224.097 232.267 224.082 236.936L224.037 252.774C224.024 257.443 220.725 259.326 216.653 256.976C212.592 254.631 209.311 248.947 209.323 244.278L209.369 228.442C209.381 223.771 212.683 221.89 216.748 224.237Z" fill="white"/>
<path d="M242.797 210.289C251.785 215.481 259.053 228.063 259.023 238.395L258.813 312.342C258.785 322.671 251.471 326.841 242.482 321.65L239.61 319.992L239.493 361.598L203.394 299.083L69.2086 221.61C60.2177 216.419 52.9521 203.831 52.9796 193.504L53.1896 119.556C53.2194 109.225 60.5303 105.057 69.5236 110.249L242.797 210.288V210.289ZM246.789 287.54L246.903 247.576C246.925 239.267 241.08 229.147 233.851 224.974L198.763 204.713C191.536 200.542 185.65 203.889 185.627 212.198L185.514 252.161C185.491 260.465 191.335 270.592 198.561 274.764L233.653 295.025C240.882 299.197 246.765 295.843 246.789 287.54ZM166.681 215.915C170.998 218.409 174.512 216.407 174.524 211.445C174.538 206.484 171.049 200.446 166.731 197.953L76.8321 146.049C72.5186 143.559 69.0058 145.554 68.9915 150.516C68.9771 155.478 72.4673 161.522 76.7808 164.011L166.681 215.915ZM141.9 230.64C146.213 233.129 149.726 231.129 149.738 226.172C149.755 221.208 146.262 215.167 141.951 212.676L76.7498 175.033C72.4375 172.543 68.9234 174.544 68.9115 179.506C68.8984 184.463 72.3874 190.505 76.6997 192.996L141.9 230.64Z" fill="white"/>
<path d="M166.731 197.951C171.05 200.444 174.539 206.482 174.524 211.444C174.511 216.406 170.998 218.407 166.681 215.914L76.7811 164.011C72.4676 161.521 68.9774 155.477 68.9917 150.516C69.0073 145.554 72.5189 143.558 76.8324 146.048L166.731 197.951Z" fill="#425F68"/>
<path d="M233.851 224.973C241.08 229.146 246.928 239.266 246.903 247.576L246.789 287.539C246.767 295.844 240.882 299.197 233.653 295.024L198.564 274.763C191.335 270.59 185.492 260.464 185.515 252.162L185.628 212.199C185.651 203.888 191.537 200.541 198.764 204.713L233.851 224.973ZM224.038 252.774L224.083 236.936C224.098 232.267 220.814 226.584 216.749 224.237C212.686 221.89 209.382 223.772 209.37 228.442L209.324 244.278C209.311 248.947 212.591 254.631 216.654 256.977C220.726 259.326 224.026 257.443 224.038 252.774ZM217.843 277.489C221.218 279.439 223.966 277.874 223.981 273.994C223.991 270.113 221.26 265.384 217.885 263.436L215.399 262.001C212.023 260.052 209.274 261.617 209.263 265.499C209.25 269.378 211.982 274.107 215.36 276.058L217.843 277.489Z" fill="#CC2727"/>
<path d="M58.8429 108.672C58.5315 108.803 58.2284 108.946 57.9385 109.115L58.8429 108.672Z" fill="white"/>
<path d="M253.238 204.221L79.9662 104.184C75.4427 101.572 71.3428 102.288 68.3812 104.007L58.8438 108.675C61.7087 107.473 65.4435 107.896 69.5243 110.251L242.797 210.29C245.348 211.764 247.762 213.833 249.909 216.276L260.35 210.209C258.204 207.764 255.79 205.695 253.239 204.222L253.238 204.221Z" fill="#E2E2E2"/>
<path d="M266.65 220.113C265.066 216.53 262.896 213.104 260.35 210.207L249.909 216.275C252.454 219.173 254.624 222.597 256.208 226.182C257.994 230.226 259.035 234.472 259.023 238.395L258.813 312.341C258.799 317.473 256.987 321.085 254.064 322.784L264.506 316.716C267.428 315.016 269.242 311.404 269.254 306.274L269.465 232.326C269.476 228.403 268.436 224.157 266.65 220.113Z" fill="#E2E2E2"/>
<path d="M239.61 319.993L250.052 313.926L249.935 355.53L239.493 361.6L239.61 319.993Z" fill="#E2E2E2"/>
<path d="M163.941 390.393C162.024 386.057 159.398 381.914 156.32 378.41C153.722 375.452 150.805 372.95 147.716 371.168L106.627 347.445C101.152 344.284 96.193 343.99 92.6121 346.071L80.9316 352.859C84.5125 350.778 89.4692 351.072 94.9449 354.233L136.036 377.956C139.122 379.737 142.041 382.24 144.638 385.198C147.716 388.704 150.342 392.847 152.259 397.182C154.421 402.074 155.679 407.211 155.665 411.955C155.647 418.165 153.456 422.533 149.92 424.588L161.602 417.798C165.138 415.742 167.33 411.375 167.345 405.167C167.359 400.42 166.103 395.284 163.941 390.392V390.393Z" fill="#CC2727"/>
<path d="M136.036 377.957C146.908 384.236 155.701 399.458 155.665 411.956C155.63 424.457 146.781 429.495 135.906 423.216L94.8164 399.493C83.9354 393.21 75.1508 377.993 75.1866 365.494C75.2224 352.993 84.0666 347.953 94.9453 354.234L136.036 377.957Z" fill="white"/>
<path d="M290.057 459.871C288.139 455.535 285.513 451.392 282.436 447.886C279.838 444.928 276.919 442.425 273.832 440.645L232.741 416.92C227.269 413.761 222.308 413.467 218.727 415.546L207.046 422.336C210.627 420.255 215.587 420.548 221.06 423.708L262.152 447.433C265.236 449.214 268.156 451.718 270.754 454.676C273.832 458.179 276.456 462.322 278.375 466.658C280.537 471.553 281.794 476.687 281.78 481.432C281.764 487.641 279.572 492.01 276.037 494.063L287.72 487.275C291.254 485.219 293.445 480.853 293.463 474.643C293.475 469.898 292.219 464.762 290.058 459.87L290.057 459.871Z" fill="#CC2727"/>
<path d="M262.152 447.427C273.023 453.705 281.815 468.928 281.779 481.426C281.746 493.928 272.895 498.965 262.022 492.685L220.932 468.96C210.052 462.68 201.267 447.462 201.302 434.961C201.338 422.46 210.182 417.422 221.059 423.702L262.152 447.427Z" fill="white"/>
<path d="M163.941 390.393C162.024 386.057 159.398 381.914 156.32 378.41C153.722 375.452 150.805 372.95 147.716 371.168L106.627 347.445C101.152 344.284 96.193 343.99 92.6121 346.071L80.9316 352.859C84.5125 350.778 89.4692 351.072 94.9449 354.233L136.036 377.956C139.122 379.737 142.041 382.24 144.638 385.198C147.716 388.704 150.342 392.847 152.259 397.182C154.421 402.074 155.679 407.211 155.665 411.955C155.647 418.165 153.456 422.533 149.92 424.588L161.602 417.798C165.138 415.742 167.33 411.375 167.345 405.167C167.359 400.42 166.103 395.284 163.941 390.392V390.393Z" fill="#CC2727"/>
<path d="M136.036 377.957C146.908 384.236 155.701 399.458 155.665 411.956C155.63 424.457 146.781 429.495 135.906 423.216L94.8164 399.493C83.9354 393.21 75.1508 377.993 75.1866 365.494C75.2224 352.993 84.0666 347.953 94.9453 354.234L136.036 377.957Z" fill="white"/>
<path opacity="0.33" d="M173.389 384.892C171.474 380.553 168.847 376.412 165.768 372.907C163.172 369.95 160.252 367.448 157.166 365.664L116.076 341.941C110.601 338.78 105.643 338.486 102.062 340.567L90.3813 347.357C93.9598 345.276 98.9177 345.568 104.395 348.73L145.484 372.454C148.573 374.235 151.49 376.737 154.088 379.695C157.167 383.199 159.792 387.344 161.71 391.679C163.872 396.571 165.13 401.709 165.117 406.452C165.098 412.662 162.906 417.03 159.371 419.085L171.053 412.296C174.59 410.241 176.78 405.874 176.797 399.665C176.811 394.92 175.554 389.783 173.392 384.892H173.389Z" fill="black"/>
<path opacity="0.33" d="M173.389 384.892C171.474 380.553 168.847 376.412 165.768 372.907C163.172 369.95 160.252 367.448 157.166 365.664L116.076 341.941C110.601 338.78 105.643 338.486 102.062 340.567L90.3813 347.357C93.9598 345.276 98.9177 345.568 104.395 348.73L145.484 372.454C148.573 374.235 151.49 376.737 154.088 379.695C157.167 383.199 159.792 387.344 161.71 391.679C163.872 396.571 165.13 401.709 165.117 406.452C165.098 412.662 162.906 417.03 159.371 419.085L171.053 412.296C174.59 410.241 176.78 405.874 176.797 399.665C176.811 394.92 175.554 389.783 173.392 384.892H173.389Z" fill="black"/>
<path opacity="0.33" d="M299.505 454.359C297.588 450.024 294.962 445.881 291.884 442.375C289.287 439.418 286.366 436.915 283.282 435.133L242.191 411.408C236.717 408.249 231.757 407.955 228.176 410.035L216.496 416.825C220.074 414.744 225.034 415.037 230.509 418.198L271.599 441.922C274.686 443.704 277.605 446.205 280.203 449.165C283.282 452.669 285.906 456.811 287.824 461.148C289.984 466.042 291.243 471.176 291.229 475.921C291.211 482.129 289.019 486.498 285.484 488.552L297.166 481.763C300.702 479.708 302.893 475.342 302.909 469.133C302.923 464.388 301.667 459.251 299.505 454.359Z" fill="black"/>
<path d="M290.057 459.871C288.14 455.535 285.513 451.392 282.436 447.886C279.838 444.928 276.92 442.425 273.833 440.645L232.742 416.92C227.27 413.761 222.308 413.467 218.727 415.546L207.047 422.336C210.628 420.255 215.588 420.548 221.06 423.708L262.152 447.433C265.237 449.214 268.157 451.718 270.754 454.676C273.833 458.179 276.457 462.322 278.376 466.658C280.538 471.553 281.794 476.687 281.781 481.432C281.764 487.641 279.572 492.01 276.038 494.063L287.721 487.275C291.254 485.219 293.446 480.853 293.464 474.643C293.476 469.898 292.219 464.762 290.058 459.87L290.057 459.871Z" fill="#CC2727"/>
<path d="M163.941 390.393C162.025 386.057 159.399 381.914 156.32 378.41C153.722 375.452 150.805 372.95 147.717 371.168L106.627 347.445C101.153 344.284 96.1935 343.99 92.6126 346.071L80.9321 352.859C84.513 350.778 89.4697 351.072 94.9454 354.233L136.036 377.956C139.122 379.737 142.042 382.24 144.638 385.198C147.717 388.704 150.342 392.847 152.26 397.182C154.422 402.074 155.679 407.211 155.665 411.955C155.647 418.165 153.456 422.533 149.921 424.588L161.603 417.798C165.138 415.742 167.33 411.375 167.346 405.167C167.36 400.42 166.103 395.284 163.941 390.392V390.393Z" fill="#CC2727"/>
<path d="M290.057 459.871C288.14 455.535 285.513 451.392 282.436 447.886C279.838 444.928 276.92 442.425 273.833 440.645L232.742 416.92C227.27 413.761 222.308 413.467 218.727 415.546L207.047 422.336C210.628 420.255 215.588 420.548 221.06 423.708L262.152 447.433C265.237 449.214 268.157 451.718 270.754 454.676C273.833 458.179 276.457 462.322 278.376 466.658C280.538 471.553 281.794 476.687 281.781 481.432C281.764 487.641 279.572 492.01 276.038 494.063L287.721 487.275C291.254 485.219 293.446 480.853 293.464 474.643C293.476 469.898 292.219 464.762 290.058 459.87L290.057 459.871Z" fill="#CC2727"/>
<path d="M262.153 447.427C273.024 453.705 281.816 468.928 281.78 481.426C281.747 493.928 272.896 498.965 262.022 492.685L220.933 468.96C210.053 462.68 201.268 447.462 201.303 434.961C201.339 422.46 210.183 417.422 221.06 423.702L262.153 447.427Z" fill="white"/>
<path d="M108.499 376.229L103.338 384.369L103.323 390.407L100.352 388.688L100.367 382.47L95.3652 368.645L98.6347 370.533L101.886 380.308L101.934 380.333L105.212 374.331L108.499 376.229Z" fill="#B02222"/>
<path d="M120.125 382.936L120.118 385.577L112.927 381.426L112.915 385.726L119.082 389.287L119.076 391.946L112.908 388.385L112.894 393.264L120.115 397.433L120.107 400.091L109.899 394.197L109.947 377.059L120.125 382.936Z" fill="#B02222"/>
<path d="M127.456 386.918C129.092 387.861 130.427 389.138 131.449 390.723C132.482 392.316 132.983 393.854 132.931 395.292L132.915 395.355L130.02 393.683C130.023 392.89 129.786 392.104 129.335 391.35C128.877 390.599 128.234 389.993 127.4 389.512C126.598 389.047 125.986 388.894 125.542 389.037C125.099 389.198 124.878 389.595 124.878 390.228C124.875 390.804 125.109 391.414 125.58 392.065C126.039 392.707 126.852 393.559 128.001 394.637C129.635 396.124 130.873 397.528 131.721 398.886C132.57 400.227 132.99 401.609 132.988 403.019C132.982 404.485 132.476 405.352 131.466 405.622C130.458 405.889 129.121 405.532 127.467 404.579C125.848 403.643 124.434 402.353 123.225 400.681C122.015 399.021 121.436 397.349 121.474 395.631L121.503 395.578L124.4 397.25C124.397 398.26 124.677 399.183 125.212 399.962C125.76 400.751 126.513 401.423 127.475 401.978C128.294 402.448 128.923 402.631 129.346 402.48C129.772 402.343 129.995 401.964 129.996 401.313C129.996 400.663 129.795 400.003 129.388 399.37C128.981 398.736 128.275 397.946 127.252 397.013C125.492 395.397 124.14 393.932 123.245 392.599C122.336 391.259 121.884 389.891 121.887 388.482C121.891 387.091 122.412 386.235 123.454 385.949C124.493 385.663 125.833 385.982 127.454 386.918H127.456Z" fill="#B02222"/>
<path d="M240.4 449.627L240.353 466.765L237.365 465.04L231.387 449.857L231.322 449.838L231.291 461.534L228.3 459.81L228.351 442.672L231.339 444.398L237.33 459.57L237.378 459.58L237.412 447.903L240.4 449.627Z" fill="#B02222"/>
<path d="M253.436 458.984C254.597 461.029 255.174 463.1 255.166 465.198L255.159 468.269C255.151 470.385 254.564 471.782 253.412 472.493C252.244 473.198 250.747 473.019 248.891 471.949C247.054 470.886 245.557 469.336 244.413 467.298C243.27 465.263 242.708 463.199 242.714 461.085L242.723 458.013C242.729 455.916 243.301 454.508 244.452 453.795C245.604 453.068 247.084 453.235 248.927 454.299C250.783 455.369 252.291 456.929 253.435 458.985L253.436 458.984ZM252.169 466.563L252.18 463.455C252.183 462.116 251.887 460.841 251.322 459.665C250.743 458.462 249.941 457.581 248.921 456.991C247.913 456.41 247.109 456.363 246.555 456.893C245.988 457.436 245.701 458.357 245.696 459.713L245.689 462.82C245.684 464.175 245.965 465.46 246.547 466.646C247.106 467.823 247.894 468.711 248.9 469.292C249.922 469.882 250.725 469.912 251.296 469.39C251.88 468.877 252.168 467.918 252.169 466.563Z" fill="#B02222"/>
<g style="mix-blend-mode:multiply" opacity="0.28">
<path d="M73.2068 611.373C61.4631 610.558 44.2615 622.153 28.5885 626.07C12.9155 629.988 6.43865 640.681 27.0862 648.683C36.4626 652.316 56.9348 646.542 69.0066 640.507C89.0397 630.49 118.611 614.524 73.2068 611.373Z" fill="#231F20"/>
</g>
<path d="M71.6487 607.751L77.1447 610.307C77.1447 610.307 88.2131 614.376 90.4814 615.702C91.72 616.431 92.3572 617.99 92.5421 619.02C92.6603 619.673 92.6901 621.519 92.3118 622.053C91.3394 623.421 89.2357 624.991 87.3086 625.36C83.5834 626.072 75.6986 624.542 75.6986 624.542C74.6855 624.052 58.7428 618.908 58.7428 618.908C58.7428 618.908 58.1534 616.92 58.0066 615.717L57.0317 607.734L71.6487 607.751Z" fill="#95E6F9"/>
<path d="M72.7236 616.938C72.6103 617.096 72.4038 617.16 72.2475 617.049C72.1234 616.963 72.0089 616.81 72.0948 616.686C72.5673 616.003 74.3595 613.537 76.3081 612.337C78.0168 611.284 79.5632 611.26 80.2648 611.319C80.4593 611.339 80.6287 611.503 80.587 611.701C80.5512 611.886 80.377 612.003 80.1944 611.989C79.5799 611.938 78.1779 611.967 76.647 612.912C74.9347 613.965 73.2916 616.141 72.7236 616.937V616.938Z" fill="#203B42"/>
<path d="M74.7022 617.55C74.5865 617.709 74.3812 617.772 74.2237 617.66C74.0984 617.577 73.9851 617.426 74.0734 617.3C74.5459 616.617 76.3345 614.15 78.2867 612.949C79.993 611.897 81.5394 611.873 82.2374 611.933C82.4367 611.949 82.6097 612.114 82.562 612.313C82.5214 612.497 82.3508 612.614 82.167 612.6C81.5549 612.553 80.1564 612.579 78.6196 613.521C76.9109 614.573 75.2654 616.752 74.701 617.548L74.7022 617.55Z" fill="#203B42"/>
<path d="M76.5791 618.549C76.467 618.703 76.2582 618.767 76.1007 618.66C75.9789 618.57 75.8632 618.42 75.9503 618.294C76.4216 617.613 78.2127 615.145 80.1648 613.944C81.8735 612.893 83.4175 612.869 84.1168 612.929C84.3136 612.947 84.4843 613.113 84.4401 613.314C84.4043 613.493 84.2289 613.61 84.0487 613.596C83.4342 613.548 82.0346 613.572 80.4977 614.518C78.7866 615.574 77.1471 617.749 76.5791 618.549Z" fill="#203B42"/>
<path d="M90.4814 615.702C90.1509 615.512 90.232 615.527 89.5912 615.238C88.7166 615.401 87.2633 615.786 85.131 617.263C80.9821 620.129 80.3223 624.487 80.3223 624.487C80.3223 624.487 82.0011 625.34 89.9814 624.079C90.0769 624.062 90.1544 624.042 90.2415 624.026C91.0983 623.427 91.8381 622.715 92.3118 622.054C92.69 621.519 92.6602 619.674 92.5421 619.021C92.3583 617.991 91.7211 616.432 90.4814 615.702Z" fill="#D3EBEF"/>
<path d="M92.5648 618.878C92.4574 620.45 89.4815 622.286 87.6058 622.873C81.1576 624.885 61.5732 618.716 60.658 618.382C58.5209 617.603 58.188 616.871 58.188 616.871C58.188 616.871 58.6283 619.131 58.7082 619.086C58.7082 619.086 59.1378 621.322 60.3716 621.876C61.3739 622.318 69.1323 623.941 71.1333 624.393C71.1333 624.393 82.6384 626.946 88.0497 625.452C89.9421 624.927 91.9968 624.108 92.8786 622.12C93.1483 621.508 92.5839 618.655 92.5648 618.878Z" fill="#203B42"/>
<path d="M34.5254 625.853L39.1265 635.784C39.1265 635.784 44.064 644.48 36.9954 645.042C35.5945 645.153 28.465 645.153 28.465 645.153C26.7825 645.153 22.9666 645.268 20.7222 642.349C19.3297 640.537 19.2867 631.494 19.3786 630.341C19.7115 625.966 20.0492 624.168 20.0492 624.168L34.5254 625.853Z" fill="#95E6F9"/>
<path d="M24.1319 631.528C23.9589 631.616 23.7369 631.577 23.6427 631.404C23.5687 631.27 23.5329 631.081 23.6701 631.007C24.4159 630.618 27.1818 629.244 29.5229 629.074C31.5693 628.929 33.0035 629.626 33.6192 630.006C33.7922 630.115 33.8746 630.343 33.7433 630.5C33.6252 630.646 33.414 630.672 33.2529 630.573C32.71 630.246 31.4106 629.614 29.5718 629.749C27.5194 629.892 25.0161 631.08 24.1319 631.528Z" fill="#203B42"/>
<path d="M24.8645 633.392C24.6914 633.479 24.4671 633.438 24.3752 633.261C24.3001 633.127 24.2667 632.939 24.4051 632.867C25.1556 632.481 27.9406 631.147 30.2829 631.01C32.3329 630.888 33.7552 631.605 34.3661 631.995C34.5391 632.105 34.6191 632.331 34.4866 632.491C34.3625 632.635 34.1525 632.655 33.9914 632.557C33.4533 632.222 32.1622 631.572 30.3223 631.682C28.2675 631.8 25.7522 632.957 24.8633 633.392H24.8645Z" fill="#203B42"/>
<path d="M25.6535 635.012C25.4733 635.089 25.2538 635.037 25.1738 634.859C25.1058 634.72 25.0831 634.529 25.2228 634.464C25.9924 634.125 28.8418 632.931 31.1877 632.914C33.2436 632.902 34.6266 633.69 35.2148 634.113C35.3819 634.23 35.4475 634.461 35.3103 634.61C35.1814 634.751 34.9678 634.763 34.8115 634.653C34.2937 634.291 33.0372 633.576 31.1937 633.586C29.1341 633.6 26.5616 634.622 25.6523 635.011L25.6535 635.012Z" fill="#203B42"/>
<path d="M73.6703 509.98L75.8694 606.814C76.2954 610.135 74.9733 610.557 74.7108 610.809C71.8757 613.527 59.2048 618.562 57.5474 614.692L48.4419 513.221L73.6703 509.98Z" fill="#336268"/>
<path d="M61.6354 514.605L36.87 625.736C37.3819 627.944 37.7291 630.875 35.4799 629.465C28.3444 624.992 19.3749 630.917 19.3749 630.917C18.2342 630.155 19.6696 624.595 19.5897 623.758L33.6256 514.145L61.6342 514.606L61.6354 514.605Z" fill="#46757F"/>
<path d="M93.1529 388.572C93.1529 388.572 91.0218 425.456 87.5602 431.171C85.8981 433.905 64.1205 461.361 64.1205 461.361C64.1205 461.361 61.0492 462.262 54.0843 458.201C50.1013 455.882 48.1886 447.925 57.411 440.177C60.9561 437.203 74.714 420.003 74.714 420.003L80.6145 387.889C80.6145 387.889 81.2648 385.295 86.2047 384.993C93.2424 384.562 93.1541 388.573 93.1541 388.573L93.1529 388.572Z" fill="#991111"/>
<path d="M21.3442 457.589C21.3442 457.589 33.8469 447.164 40.5599 444.549C44.1742 443.144 55.6721 442.293 55.6721 442.293C55.6721 442.293 67.6664 450.94 70.6459 462.217C70.8834 463.11 77.6657 477.534 75.1146 530.293C74.9069 534.579 65.3552 539.488 52.5638 539.868C41.4549 540.197 26.3975 536.467 26.3975 536.467C26.3975 536.467 28.5215 517.103 27.8843 498.809C27.333 483.017 21.3442 457.588 21.3442 457.588V457.589Z" fill="#B51616"/>
<path d="M7.73983 531.511C7.18498 533.564 9.59052 535.66 11.4639 536.161C12.1142 536.339 11.8016 541.613 14.5305 542.162C14.5305 542.162 14.8896 540.817 15.429 538.446C15.4719 538.26 16.3084 536.336 15.4624 534.595C13.2334 529.989 13.0521 529.179 11.1847 528.675C9.31131 528.174 8.29229 529.455 7.73983 531.51V531.511Z" fill="#FFE8D9"/>
<path d="M5.92002 528.05L11.3325 529.445L12.4708 533.349L11.3659 537.425C11.3659 537.425 11.0032 538.526 11.6773 540.052C11.9386 540.648 12.4088 541.686 12.4088 541.686C12.4088 541.686 12.0914 545.912 9.01644 544.645C8.02487 544.236 7.39604 543.314 7.39604 543.314C6.03337 542.934 3.80324 542.027 2.30693 541.512C-1.14865 540.322 0.302312 536.216 0.302312 536.216L1.31894 532.117C1.86305 529.811 3.4393 527.415 5.92121 528.049L5.92002 528.05Z" fill="#FFE8D9"/>
<path d="M6.52846 532.403C4.36753 532.098 3.10867 531.057 3.10867 531.057C3.10867 531.057 1.37611 529.817 1.58135 528.033C2.20421 522.69 4.11456 499.737 5.97122 493.315C8.00448 486.268 13.2606 469.359 13.2606 469.359C13.2606 469.359 18.0407 454.162 26.6856 457.208C33.0204 459.443 32.283 470.297 30.535 475.915C29.1628 480.333 20.9009 498.87 20.9009 498.87L14.1591 530.82C14.1591 530.82 11.5484 533.105 6.52965 532.402L6.52846 532.403Z" fill="#CC2727"/>
<path d="M26.1307 638.054C28.7689 636.908 32.3522 636.618 36.0237 637.417C37.9174 637.826 39.5545 639.049 40.6952 640.131C41.0711 642.398 40.5687 644.761 36.995 645.044C35.5942 645.155 28.4646 645.155 28.4646 645.155C26.8705 645.155 23.3815 645.226 21.1084 642.758C22.2038 641.146 23.9698 638.992 26.1307 638.054Z" fill="#D3EBEF"/>
<path d="M20.5778 642.364C19.937 641.53 19.6864 639.224 19.5444 636.746C19.5635 636.78 19.5814 636.801 19.6005 636.853C20.2735 638.534 21.845 640.44 23.8651 641.34C25.507 642.068 28.0175 642.238 32.3931 642.126C37.6409 641.991 39.9044 641.696 40.8137 641.474C40.8137 643.141 40.5476 644.94 37.6552 645.168C36.2532 645.28 28.7931 645.28 28.7931 645.28C27.1095 645.28 22.8222 645.279 20.5778 642.364Z" fill="#203B42"/>
<path d="M39.7088 420.19C42.9031 419.666 43.767 422.667 43.767 422.667L44.8218 429.077C44.8218 429.077 44.897 430.495 43.7348 430.941C41.9808 431.608 40.9343 430.151 39.8329 428.538C39.7685 428.45 38.3116 426.045 38.2257 425.901C36.974 423.867 36.6948 420.688 39.71 420.189L39.7088 420.19Z" fill="#FFE8D9"/>
<path d="M54.391 454.643C53.1667 462.003 37.1918 456.57 37.3291 445.745L36.4795 426.168L51.7981 430.24L51.18 447.792C51.18 447.792 54.9637 451.217 54.391 454.643Z" fill="#E2C3B3"/>
<path d="M35.3004 409.854V409.858L25.2021 417.218L38.2429 435.605C39.281 436.758 40.5709 438.34 42.5373 438.806C43.9656 439.139 44.8498 439.085 47.284 438.919C47.284 438.919 56.0781 437.414 58.8571 433.365C60.0002 431.698 59.2043 429.427 58.8571 427.923C58.4597 426.233 56.399 421.646 55.732 420.518L50.8052 410.777C50.8052 410.777 48.6299 405.889 46.3962 404.932C43.4 403.65 35.3004 409.856 35.3004 409.856V409.854Z" fill="#EFD7CA"/>
<path d="M47.5601 405.843C47.7009 406.022 46.2368 404.529 43.0031 406.845C39.2158 409.56 36.7566 414.838 36.3438 415.784C35.1565 418.493 37.259 423.417 38.5095 424.943C38.5095 424.943 34.9811 426.129 32.9371 428.105C31.1878 429.794 35.166 431.07 35.4488 431.222L36.963 432.736C37.4248 433.776 38.1014 439.047 36.87 438.226C34.7878 436.838 30.1712 433.832 28.836 433.035C13.4088 423.834 17.3452 407.205 32.6722 401.587C35.6648 400.486 40.81 399.829 44.3217 401.107C45.0877 401.385 45.5125 403.263 47.5613 405.844L47.5601 405.843Z" fill="#56230F"/>
<path d="M31.9097 425.731C34.5324 423.837 36.6421 426.145 36.6421 426.145L40.4437 431.408C40.4437 431.408 41.1417 432.644 40.3041 433.558C39.0309 434.94 37.4439 434.103 35.7376 433.154C35.6421 433.101 33.2628 431.599 33.1209 431.509C31.0948 430.24 29.4254 427.523 31.9097 425.731Z" fill="#EFD7CA"/>
<path d="M82.2197 386.787C82.2197 386.787 86.7778 383.292 92.0173 387.344C94.3775 389.171 90.3479 390.573 87.7873 390.817C85.9163 390.998 77.5685 390.507 82.2197 386.787Z" fill="#6D0C0C"/>
<path d="M91.5515 384.63C91.5515 384.63 94.9343 383.652 96.0929 380.713C97.2516 377.773 99.1201 375.993 101.082 374.834C103.04 373.677 100.714 371.919 97.2516 374.299C95.8257 375.279 95.0238 376.348 95.0238 376.348C95.0238 376.348 98.3207 365.217 97.6954 363.701C97.0738 362.188 94.667 365.928 93.5096 370.916C93.5096 370.916 95.0226 364.68 94.5787 363.344C94.1349 362.008 92.0849 364.058 90.0361 365.75C87.9874 367.441 87.3645 367.799 87.0089 370.469C86.6521 373.141 85.2346 378.819 84.8038 380.602C83.8278 384.636 84.2681 383.407 83.5342 385.544C83.4113 385.904 81.989 389.678 82.0869 390.045C82.1775 390.378 87.4301 391.713 91.1267 390C91.9023 389.638 91.5503 384.632 91.5503 384.632L91.5515 384.63Z" fill="#E8C5AC"/>
<g opacity="0.3">
<path d="M250.019 319.12L260.461 313.051L260.346 349.405L249.905 355.475L250.019 319.12Z" fill="black"/>
</g>
<path d="M141.951 212.677C146.264 215.168 149.755 221.21 149.738 226.174C149.725 231.13 146.214 233.131 141.9 230.641L76.6998 192.998C72.3875 190.508 68.8985 184.466 68.9117 179.509C68.9248 174.546 72.4376 172.545 76.75 175.036L141.951 212.678V212.677Z" fill="#425F68"/>
<path d="M217.884 263.438C221.26 265.387 223.991 270.115 223.98 273.997C223.966 277.877 221.219 279.443 217.843 277.492L215.359 276.059C211.981 274.109 209.25 269.38 209.263 265.5C209.274 261.618 212.022 260.053 215.399 262.003L217.884 263.438Z" fill="white"/>
<path d="M216.748 224.237C220.813 226.585 224.097 232.267 224.082 236.936L224.037 252.774C224.024 257.443 220.725 259.326 216.653 256.976C212.592 254.631 209.311 248.947 209.323 244.278L209.369 228.442C209.381 223.771 212.683 221.89 216.748 224.237Z" fill="white"/>
<path d="M166.731 197.951C171.05 200.444 174.539 206.482 174.524 211.444C174.511 216.406 170.998 218.407 166.681 215.914L76.7811 164.011C72.4676 161.521 68.9774 155.477 68.9917 150.516C69.0073 145.554 72.5189 143.558 76.8324 146.048L166.731 197.951Z" fill="#425F68"/>
<path d="M233.851 224.973C241.08 229.146 246.928 239.266 246.903 247.576L246.789 287.539C246.767 295.844 240.882 299.197 233.653 295.024L198.564 274.763C191.335 270.59 185.492 260.464 185.515 252.162L185.628 212.199C185.651 203.888 191.537 200.541 198.764 204.713L233.851 224.973ZM224.038 252.774L224.083 236.936C224.098 232.267 220.814 226.584 216.749 224.237C212.686 221.89 209.382 223.772 209.37 228.442L209.324 244.278C209.311 248.947 212.591 254.631 216.654 256.977C220.726 259.326 224.026 257.443 224.038 252.774ZM217.843 277.489C221.218 279.439 223.966 277.874 223.981 273.994C223.991 270.113 221.26 265.384 217.885 263.436L215.399 262.001C212.023 260.052 209.274 261.617 209.263 265.499C209.25 269.378 211.982 274.107 215.36 276.058L217.843 277.489Z" fill="#CC2727"/>
<g opacity="0.3">
<path d="M263.036 200.373L89.7653 100.334C85.2406 97.7218 81.1406 101.587 78.1814 103.306L68.6416 107.974C71.5077 106.772 75.2413 107.195 79.3234 109.55L252.595 209.59C255.148 211.064 257.563 213.133 259.708 215.577L270.149 206.359C268.003 203.914 265.589 201.845 263.037 200.371L263.036 200.373Z" fill="black"/>
<path d="M276.45 216.266C274.864 212.682 272.696 209.258 270.149 206.359L259.708 215.577C262.253 218.475 264.422 221.9 266.007 225.484C267.793 229.528 268.835 233.774 268.822 237.696L268.176 306.941C268.161 312.072 266.349 315.684 263.426 317.383L273.869 311.314C276.79 309.615 278.605 306.004 278.616 300.874L279.264 228.478C279.275 224.555 278.235 220.309 276.45 216.266Z" fill="black"/>
</g>
<path d="M58.8429 108.672C58.5315 108.803 58.2284 108.946 57.9385 109.115L58.8429 108.672Z" fill="white"/>
<path d="M253.238 204.221L79.9662 104.184C75.4427 101.572 71.3428 102.288 68.3812 104.007L58.8438 108.675C61.7087 107.473 65.4435 107.896 69.5243 110.251L242.797 210.29C245.348 211.764 247.762 213.833 249.909 216.276L260.35 210.209C258.204 207.764 255.79 205.695 253.239 204.222L253.238 204.221Z" fill="#E2E2E2"/>
<path d="M266.65 220.113C265.066 216.53 262.896 213.104 260.35 210.207L249.909 216.275C252.454 219.173 254.624 222.597 256.208 226.182C257.994 230.226 259.035 234.472 259.023 238.395L258.813 312.341C258.799 317.473 256.987 321.085 254.064 322.784L264.506 316.716C267.428 315.016 269.242 311.404 269.254 306.274L269.465 232.326C269.476 228.403 268.436 224.157 266.65 220.113Z" fill="#E2E2E2"/>
<path d="M242.797 210.289C251.785 215.481 259.053 228.063 259.023 238.395L258.813 312.342C258.785 322.671 251.471 326.841 242.482 321.65L239.61 319.992L239.493 361.598L203.394 299.083L69.2086 221.61C60.2177 216.419 52.9521 203.831 52.9796 193.504L53.1896 119.556C53.2194 109.225 60.5303 105.057 69.5236 110.249L242.797 210.288V210.289ZM246.789 287.54L246.903 247.576C246.925 239.267 241.08 229.147 233.851 224.974L198.763 204.713C191.536 200.542 185.65 203.889 185.627 212.198L185.514 252.161C185.491 260.465 191.335 270.592 198.561 274.764L233.653 295.025C240.882 299.197 246.765 295.843 246.789 287.54ZM166.681 215.915C170.998 218.409 174.512 216.407 174.524 211.445C174.538 206.484 171.049 200.446 166.731 197.953L76.8321 146.049C72.5186 143.559 69.0058 145.554 68.9915 150.516C68.9771 155.478 72.4673 161.522 76.7808 164.011L166.681 215.915ZM141.9 230.64C146.213 233.129 149.726 231.129 149.738 226.172C149.755 221.208 146.262 215.167 141.951 212.676L76.7498 175.033C72.4375 172.543 68.9234 174.544 68.9115 179.506C68.8984 184.463 72.3874 190.505 76.6997 192.996L141.9 230.64Z" fill="white"/>
</svg>
